<svg version="1.1" id="Layer_1" xmlns="http://www.w3.org/2000/svg" xmlns:xlink="http://www.w3.org/1999/xlink" x="0px" y="0px"
	 width="100%" viewBox="0 0 200 200" enable-background="new 0 0 200 200" xml:space="preserve">
<path fill="#FEFEFE" opacity="1.000000" stroke="none" 
	d="
M201.000000,83.000000 
	C201.000000,122.642174 201.000000,161.784348 201.000000,200.963257 
	C134.399521,200.963257 67.799019,200.963257 1.099259,200.963257 
	C1.099259,134.441315 1.099259,67.882446 1.099259,1.161784 
	C67.666351,1.161784 134.333145,1.161784 201.000000,1.161784 
	C201.000000,28.200712 201.000000,55.350357 201.000000,83.000000 
M112.024330,33.935623 
	C112.024330,33.935623 112.064911,33.839775 112.026436,33.083916 
	C110.516640,27.905844 101.504326,26.049549 96.168541,30.120996 
	C94.780441,29.970201 93.392349,29.819408 91.874092,29.078821 
	C90.914139,29.253096 89.954193,29.427372 88.130760,29.778851 
	C86.074631,29.759178 84.018509,29.739508 81.518082,29.118843 
	C78.549850,28.526499 75.584129,27.921255 72.612793,27.344917 
	C68.454926,26.538431 66.530838,28.092152 65.400955,32.952450 
	C64.754929,33.048870 64.108910,33.145290 62.543728,33.109108 
	C61.712467,33.075813 60.805756,32.807770 60.062038,33.046825 
	C54.725292,34.762241 49.310806,36.315666 44.152233,38.473351 
	C41.391911,39.627911 39.090637,41.879963 36.582195,43.636726 
	C34.798000,44.904026 33.817600,48.018585 31.890533,48.800735 
	C25.569527,51.366261 25.992199,58.949242 20.725887,62.492725 
	C18.260571,64.151535 17.760422,68.915283 16.681692,72.369293 
	C16.176165,73.987953 16.409925,75.837509 16.277517,78.094292 
	C16.121040,78.395073 15.964564,78.695854 15.047775,79.016159 
	C13.870882,80.669502 11.890095,82.232147 11.691134,83.995811 
	C11.322362,87.264763 8.918018,90.792770 12.089759,94.679665 
	C11.998178,95.126404 11.906595,95.573143 11.533267,96.184303 
	C11.314949,96.494293 11.378925,96.755142 11.837618,97.805794 
	C11.669976,98.620003 11.502335,99.434204 11.076453,100.965553 
	C11.339983,105.302116 11.603512,109.638687 12.104538,114.749588 
	C12.368414,116.055359 12.608360,117.366501 12.899686,118.666122 
	C19.426876,147.784225 36.185505,168.348923 64.867546,177.317337 
	C93.964417,186.415451 119.716003,178.959747 141.648575,158.026749 
	C142.712326,157.011490 143.176086,155.367584 144.161591,153.349167 
	C152.188202,149.233582 158.951904,143.609177 164.536545,136.517670 
	C168.642120,131.304306 173.062927,126.328758 176.975418,120.978256 
	C178.896912,118.350533 179.983063,115.111969 181.447250,112.149841 
	C178.236450,111.073135 175.090515,109.664413 171.795135,109.020546 
	C168.952377,108.465118 165.939545,108.780273 163.294067,108.135170 
	C169.950287,99.244659 176.606522,90.354141 183.974838,80.512527 
	C178.040085,79.937073 173.927719,79.444092 169.801056,79.156273 
	C158.464447,78.365601 148.904205,81.923698 141.530914,90.828323 
	C138.883606,94.025452 136.048538,97.066307 133.347565,100.219948 
	C125.027489,109.934425 116.805084,119.733727 108.396759,129.370972 
	C103.465508,135.022949 97.635170,139.250427 88.945160,139.097824 
	C88.305939,139.321304 87.666718,139.544785 86.201210,139.921844 
	C84.805283,139.873459 83.409355,139.825073 82.014687,139.376526 
	C82.014687,139.376526 82.000923,138.976608 82.081535,138.269318 
	C82.808365,137.475052 83.392410,136.270752 84.287300,135.959137 
	C87.744530,134.755219 88.348541,132.213806 88.832420,129.019669 
	C91.436371,129.196457 92.312782,127.918495 91.902870,124.959618 
	C92.257553,124.612022 92.612236,124.264427 93.408920,124.477287 
	C96.450302,125.368423 95.922043,123.395897 96.019737,121.883804 
	C96.019737,121.883804 95.663177,121.672546 96.422195,121.857185 
	C101.226067,117.783966 106.516533,114.141434 110.648285,109.473320 
	C113.063492,106.744598 113.194565,102.124588 115.131516,98.810265 
	C117.753220,94.324226 121.121788,90.274651 124.169945,86.037834 
	C125.506142,84.832321 125.895447,82.866974 126.555710,80.997314 
	C127.238251,79.064545 128.174377,77.220398 129.018433,75.345985 
	C129.473297,74.335846 129.834518,73.248566 130.467926,72.359993 
	C132.882584,68.972588 135.457062,65.698051 137.834625,62.285736 
	C138.941254,60.697475 139.848618,58.941826 140.642990,57.170853 
	C142.047699,54.039207 143.296906,50.837822 144.751236,47.776672 
	C144.751236,47.776672 144.667267,47.618893 145.546265,47.855297 
	C149.561874,48.058350 153.524551,48.322487 155.586075,43.619450 
	C155.935928,42.821335 157.484177,42.410679 158.559204,42.095165 
	C161.347351,41.276863 164.180328,40.611397 167.131470,39.849815 
	C170.505066,41.951664 170.632202,44.195145 167.468231,47.137848 
	C162.728455,51.546143 161.436874,57.176308 162.289078,63.435772 
	C167.056671,63.581055 167.083649,58.436382 169.045822,57.593590 
	C173.290222,55.770550 174.031952,52.810398 174.984573,49.245441 
	C175.296356,48.078674 176.612183,47.208363 177.352295,46.123005 
	C180.507416,41.496086 185.612000,37.711861 183.840698,30.316887 
	C182.553635,29.837929 181.266556,29.358973 179.508850,28.382118 
	C177.471344,28.337954 175.433853,28.293789 172.947647,28.456264 
	C172.605011,28.489912 172.291016,28.410458 171.933365,27.547178 
	C170.288574,27.923733 168.643799,28.300287 166.201767,28.908394 
	C164.826035,29.031277 163.450287,29.154158 161.932083,28.501884 
	C161.165695,28.029560 160.219620,26.997787 159.662415,27.176756 
	C156.335175,28.245453 152.907089,29.249184 149.874390,30.927879 
	C145.270157,33.476482 139.519012,34.596771 137.320053,40.592113 
	C137.024597,41.397682 133.701141,41.783321 132.158478,41.255913 
	C130.450745,40.672066 129.094727,38.896439 127.732735,37.496586 
	C124.397209,34.068306 117.847557,32.690884 114.337959,34.824337 
	C113.885216,34.808792 113.432480,34.793247 112.774391,34.429874 
	C112.599602,34.216042 112.383194,34.059875 112.024330,33.935623 
z"/>
<path fill="#FCFDFD" opacity="1.000000" stroke="none" 
	d="
M16.308640,77.582420 
	C16.409925,75.837509 16.176165,73.987953 16.681692,72.369293 
	C17.760422,68.915283 18.260571,64.151535 20.725887,62.492725 
	C25.992199,58.949242 25.569527,51.366261 31.890533,48.800735 
	C33.817600,48.018585 34.798000,44.904026 36.582195,43.636726 
	C39.090637,41.879963 41.391911,39.627911 44.152233,38.473351 
	C49.310806,36.315666 54.725292,34.762241 60.062038,33.046825 
	C60.805756,32.807770 61.712467,33.075813 62.736004,33.432182 
	C47.282555,39.352837 34.570305,48.696999 24.709728,63.007545 
	C27.312336,63.007545 28.971317,62.824215 30.576031,63.041553 
	C35.604084,63.722534 39.122402,62.205887 42.833790,58.226990 
	C59.554623,40.300995 80.181580,32.348972 104.797531,36.001640 
	C108.841934,36.601776 112.871826,37.299755 116.908424,37.952518 
	C117.204948,37.462234 117.501472,36.971951 117.797997,36.481667 
	C116.871796,35.961212 115.945587,35.440758 115.019386,34.920303 
	C117.847557,32.690884 124.397209,34.068306 127.732735,37.496586 
	C129.094727,38.896439 130.450745,40.672066 132.158478,41.255913 
	C133.701141,41.783321 137.024597,41.397682 137.320053,40.592113 
	C139.519012,34.596771 145.270157,33.476482 149.874390,30.927879 
	C152.907089,29.249184 156.335175,28.245453 159.662415,27.176756 
	C160.219620,26.997787 161.165695,28.029560 161.702103,29.091627 
	C149.199677,32.415836 139.647400,38.685257 133.597992,50.098255 
	C125.442848,65.483971 117.364693,80.939224 108.437622,95.877068 
	C102.379074,106.014977 94.919525,115.315628 87.764931,125.119446 
	C85.168221,127.330078 82.893105,129.411972 80.617989,131.493866 
	C80.945457,131.847244 81.272926,132.200638 81.600395,132.554016 
	C83.736549,131.392014 85.872696,130.229996 88.008842,129.067993 
	C88.348541,132.213806 87.744530,134.755219 84.287300,135.959137 
	C83.392410,136.270752 82.808365,137.475052 81.669945,138.627991 
	C79.857384,139.211151 78.456413,139.435638 76.747940,139.839951 
	C76.915680,140.627228 77.268852,141.437027 77.885948,141.809311 
	C81.920326,144.243256 86.011848,146.582474 90.229248,149.290344 
	C91.995125,150.055740 93.616447,150.483429 95.606232,150.925232 
	C98.977394,151.894455 101.980103,152.849548 105.044891,153.999542 
	C105.406044,154.136276 105.705109,154.078140 106.401978,153.995209 
	C107.564957,154.162842 108.330132,154.355270 109.263733,154.674194 
	C109.432152,154.800659 109.837654,154.919037 109.837654,154.919037 
	C109.837654,154.919037 110.259743,154.901367 110.609467,154.864761 
	C111.646942,154.956970 112.334702,155.085785 113.289337,155.446457 
	C114.255516,155.713394 114.954811,155.748489 116.064911,155.645126 
	C122.438927,155.730530 128.402161,155.954422 134.096893,156.488190 
	C128.210876,157.430176 122.593323,158.062286 116.883163,158.563995 
	C116.462784,158.262207 116.207207,158.349518 115.599533,158.778412 
	C113.750809,158.747482 112.326355,158.633713 110.629601,158.340546 
	C109.485893,158.138596 108.614487,158.116028 107.399445,158.164551 
	C106.368477,158.113983 105.681137,157.992310 104.912323,157.719879 
	C104.559868,157.633743 104.288895,157.698395 103.634155,157.797943 
	C101.488312,157.442017 99.726219,157.051193 97.771042,156.481308 
	C97.234802,156.254059 96.891663,156.205887 96.206650,156.177124 
	C94.575005,155.778488 93.285225,155.360443 91.782150,154.689301 
	C90.711441,154.291229 89.854034,154.146240 88.622284,154.000458 
	C86.175735,153.131531 84.103554,152.263382 82.005356,151.212311 
	C81.659554,150.990799 81.339760,150.952225 80.673981,150.885895 
	C76.883507,148.909119 73.439041,146.960098 69.838142,144.773254 
	C69.335930,144.401505 68.990135,144.267548 68.317932,144.055878 
	C53.684891,134.603638 42.979988,122.256973 37.068256,106.069466 
	C32.057739,92.349663 33.172409,79.819427 44.935036,69.617752 
	C34.263348,65.534660 21.105534,65.018593 16.308640,77.582420 
M70.397797,134.981232 
	C71.743454,134.348282 73.089119,133.715347 74.434784,133.082413 
	C74.281693,132.753174 74.128601,132.423935 73.975517,132.094696 
	C72.525200,132.094696 71.074883,132.094696 69.624557,132.094696 
	C69.628113,133.038300 69.631668,133.981918 70.397797,134.981232 
M78.468849,133.252136 
	C78.597961,132.857712 78.748322,132.468018 78.838058,132.064819 
	C78.855782,131.985214 78.640175,131.853653 78.532181,131.746063 
	C78.403198,132.140457 78.274208,132.534851 78.468849,133.252136 
M74.390488,138.525360 
	C74.172203,138.469971 73.953911,138.414597 73.735626,138.359222 
	C73.876045,138.496460 74.016464,138.633713 74.390488,138.525360 
M24.389158,64.478279 
	C24.389158,64.478279 24.522774,64.392464 24.389158,64.478279 
M66.480400,133.599838 
	C66.480400,133.599838 66.402565,133.475159 66.480400,133.599838 
z"/>
<path fill="#045898" opacity="1.000000" stroke="none" 
	d="
M16.293079,77.838356 
	C21.105534,65.018593 34.263348,65.534660 44.935036,69.617752 
	C33.172409,79.819427 32.057739,92.349663 37.068256,106.069466 
	C42.979988,122.256973 53.684891,134.603638 68.457657,144.311356 
	C69.280716,144.766739 69.637642,144.888901 69.994568,145.011078 
	C73.439041,146.960098 76.883507,148.909119 80.799248,151.043991 
	C81.270515,151.229843 81.628899,151.413956 81.628899,151.413956 
	C81.628899,151.413956 82.031364,151.395248 82.031364,151.395248 
	C84.103554,152.263382 86.175735,153.131531 88.871681,154.208252 
	C90.328773,154.592041 91.162117,154.767212 91.995453,154.942383 
	C93.285225,155.360443 94.575005,155.778488 96.388390,156.380219 
	C97.262711,156.596054 97.613419,156.628220 97.964134,156.660385 
	C99.726219,157.051193 101.488312,157.442017 103.869850,157.899902 
	C104.657471,157.934860 104.825638,157.902756 104.993805,157.870651 
	C105.681137,157.992310 106.368477,158.113983 107.697998,158.308044 
	C109.194099,158.426926 110.047997,158.473434 110.901901,158.519928 
	C112.326355,158.633713 113.750809,158.747482 115.837616,158.851044 
	C116.499977,158.840820 116.975777,158.694382 116.975777,158.694397 
	C122.593323,158.062286 128.210876,157.430176 134.463882,156.437134 
	C138.039322,155.389618 140.979279,154.703018 143.919250,154.016418 
	C143.176086,155.367584 142.712326,157.011490 141.648575,158.026749 
	C119.716003,178.959747 93.964417,186.415451 64.867546,177.317337 
	C36.185505,168.348923 19.426876,147.784225 12.899686,118.666122 
	C12.608360,117.366501 12.368414,116.055359 12.040796,113.902664 
	C11.762934,108.786629 11.548815,104.517525 11.334694,100.248413 
	C11.502335,99.434204 11.669976,98.620003 11.882822,97.157082 
	C11.890354,96.345535 11.852684,96.182709 11.815014,96.019882 
	C11.906595,95.573143 11.998178,95.126404 12.201784,93.993576 
	C13.478569,88.537209 14.643328,83.766922 15.808086,78.996635 
	C15.964564,78.695854 16.121040,78.395073 16.293079,77.838356 
z"/>
<path fill="#075898" opacity="1.000000" stroke="none" 
	d="
M90.084702,148.952637 
	C86.011848,146.582474 81.920326,144.243256 77.885948,141.809311 
	C77.268852,141.437027 76.915680,140.627228 77.161743,139.871841 
	C79.259834,139.741486 80.636635,139.759094 82.013428,139.776703 
	C83.409355,139.825073 84.805283,139.873459 86.958527,139.907257 
	C88.360222,139.672104 89.004593,139.451523 89.648956,139.230957 
	C97.635170,139.250427 103.465508,135.022949 108.396759,129.370972 
	C116.805084,119.733727 125.027489,109.934425 133.347565,100.219948 
	C136.048538,97.066307 138.883606,94.025452 141.530914,90.828323 
	C148.904205,81.923698 158.464447,78.365601 169.801056,79.156273 
	C173.927719,79.444092 178.040085,79.937073 183.974838,80.512527 
	C176.606522,90.354141 169.950287,99.244659 162.769318,108.532646 
	C152.223373,110.935196 144.395218,116.863708 137.009857,123.385910 
	C124.284737,134.623795 112.141914,146.751205 93.896500,148.472244 
	C93.438316,148.515472 93.012009,148.896530 92.260101,149.089493 
	C91.327812,149.023514 90.706261,148.988068 90.084702,148.952637 
z"/>
<path fill="#E32826" opacity="1.000000" stroke="none" 
	d="
M92.570831,149.120026 
	C93.012009,148.896530 93.438316,148.515472 93.896500,148.472244 
	C112.141914,146.751205 124.284737,134.623795 137.009857,123.385910 
	C144.395218,116.863708 152.223373,110.935196 162.623230,108.820328 
	C165.939545,108.780273 168.952377,108.465118 171.795135,109.020546 
	C175.090515,109.664413 178.236450,111.073135 181.447266,112.149841 
	C179.983063,115.111969 178.896912,118.350533 176.975418,120.978256 
	C173.062927,126.328758 168.642120,131.304306 164.536545,136.517670 
	C158.951904,143.609177 152.188202,149.233582 144.040421,153.682800 
	C140.979279,154.703018 138.039322,155.389618 134.732361,156.127258 
	C128.402161,155.954422 122.438927,155.730530 115.797272,155.411591 
	C114.420044,155.282547 113.721252,155.248581 113.022453,155.214615 
	C112.334702,155.085785 111.646942,154.956970 110.455070,154.702271 
	C109.671410,154.396393 109.386192,154.386841 109.095306,154.547714 
	C108.330132,154.355270 107.564957,154.162842 106.163361,153.861862 
	C105.345566,153.770416 105.164185,153.787537 104.982803,153.804642 
	C101.980103,152.849548 98.977394,151.894455 95.377029,150.680298 
	C94.043182,149.987503 93.307007,149.553757 92.570831,149.120026 
z"/>
<path fill="#0F5998" opacity="1.000000" stroke="none" 
	d="
M88.086525,124.990723 
	C94.919525,115.315628 102.379074,106.014977 108.437622,95.877068 
	C117.364693,80.939224 125.442848,65.483971 133.597992,50.098255 
	C139.647400,38.685257 149.199677,32.415836 161.773346,29.479204 
	C163.450287,29.154158 164.826035,29.031277 166.918488,28.910389 
	C169.092026,28.680889 170.548828,28.449396 172.005646,28.217901 
	C172.291016,28.410458 172.605011,28.489912 173.271515,28.725863 
	C175.723404,28.956978 177.851456,28.918495 179.979492,28.880014 
	C181.266556,29.358973 182.553635,29.837929 183.632034,30.836424 
	C180.368866,35.893902 177.314362,40.431839 174.259857,44.969780 
	C173.865204,44.789726 173.470566,44.609673 173.075912,44.429619 
	C173.828033,42.349579 174.580170,40.269543 175.423630,37.936916 
	C163.670181,37.308407 153.232056,39.481285 144.667267,47.618893 
	C144.667267,47.618893 144.751236,47.776672 144.394836,47.882515 
	C139.902008,53.969795 135.553696,59.817303 131.671112,65.959229 
	C122.207497,80.929855 113.024750,96.077919 103.579147,111.060120 
	C101.232758,114.781860 98.317146,118.144730 95.663177,121.672546 
	C95.663177,121.672546 96.019737,121.883804 95.554230,121.849144 
	C94.381462,122.515274 93.674194,123.216057 92.966927,123.916840 
	C92.612236,124.264427 92.257553,124.612022 91.513336,125.408249 
	C90.111374,125.568161 89.098946,125.279442 88.086525,124.990723 
z"/>
<path fill="#0B5898" opacity="1.000000" stroke="none" 
	d="
M114.678673,34.872322 
	C115.945587,35.440758 116.871796,35.961212 117.797997,36.481667 
	C117.501472,36.971951 117.204948,37.462234 116.908424,37.952518 
	C112.871826,37.299755 108.841934,36.601776 104.797531,36.001640 
	C80.181580,32.348972 59.554623,40.300995 42.833790,58.226990 
	C39.122402,62.205887 35.604084,63.722534 30.576031,63.041553 
	C28.971317,62.824215 27.312336,63.007545 24.709728,63.007545 
	C34.570305,48.696999 47.282555,39.352837 63.195580,33.498482 
	C64.108910,33.145290 64.754929,33.048870 66.071609,32.781250 
	C71.815643,31.646643 76.889008,30.683239 81.962379,29.719837 
	C84.018509,29.739508 86.074631,29.759178 88.931870,29.780666 
	C90.490067,29.744526 91.247154,29.706570 92.004250,29.668613 
	C93.392349,29.819408 94.780441,29.970201 96.944656,30.205326 
	C102.502159,31.473030 107.283531,32.656403 112.064911,33.839775 
	C112.064911,33.839775 112.024330,33.935623 112.082840,34.198120 
	C112.141342,34.460617 112.482422,34.825680 112.482422,34.825680 
	C112.482422,34.825680 112.979736,34.777702 112.979736,34.777702 
	C113.432480,34.793247 113.885216,34.808792 114.678673,34.872322 
z"/>
<path fill="#FCFDFD" opacity="1.000000" stroke="none" 
	d="
M145.106766,47.737095 
	C153.232056,39.481285 163.670181,37.308407 175.423630,37.936916 
	C174.580170,40.269543 173.828033,42.349579 173.075912,44.429619 
	C173.470566,44.609673 173.865204,44.789726 174.259857,44.969780 
	C177.314362,40.431839 180.368866,35.893902 183.707977,31.172087 
	C185.612000,37.711861 180.507416,41.496086 177.352295,46.123005 
	C176.612183,47.208363 175.296356,48.078674 174.984573,49.245441 
	C174.031952,52.810398 173.290222,55.770550 169.045822,57.593590 
	C167.083649,58.436382 167.056671,63.581055 162.289078,63.435772 
	C161.436874,57.176308 162.728455,51.546143 167.468231,47.137848 
	C170.632202,44.195145 170.505066,41.951664 167.131470,39.849815 
	C164.180328,40.611397 161.347351,41.276863 158.559204,42.095165 
	C157.484177,42.410679 155.935928,42.821335 155.586075,43.619450 
	C153.524551,48.322487 149.561874,48.058350 145.106766,47.737095 
z"/>
<path fill="#FCFDFD" opacity="1.000000" stroke="none" 
	d="
M96.042694,121.764870 
	C98.317146,118.144730 101.232758,114.781860 103.579147,111.060120 
	C113.024750,96.077919 122.207497,80.929855 131.671112,65.959229 
	C135.553696,59.817303 139.902008,53.969795 144.324829,47.826992 
	C143.296906,50.837822 142.047699,54.039207 140.642990,57.170853 
	C139.848618,58.941826 138.941254,60.697475 137.834625,62.285736 
	C135.457062,65.698051 132.882584,68.972588 130.467926,72.359993 
	C129.834518,73.248566 129.473297,74.335846 129.018433,75.345985 
	C128.174377,77.220398 127.238251,79.064545 126.555710,80.997314 
	C125.895447,82.866974 125.506142,84.832321 124.169945,86.037834 
	C121.121788,90.274651 117.753220,94.324226 115.131516,98.810265 
	C113.194565,102.124588 113.063492,106.744598 110.648285,109.473320 
	C106.516533,114.141434 101.226067,117.783966 96.042694,121.764870 
z"/>
<path fill="#FCFDFD" opacity="1.000000" stroke="none" 
	d="
M112.045670,33.461845 
	C107.283531,32.656403 102.502159,31.473030 97.360374,30.139263 
	C101.504326,26.049549 110.516640,27.905844 112.045670,33.461845 
z"/>
<path fill="#FCFDFD" opacity="1.000000" stroke="none" 
	d="
M81.740234,29.419340 
	C76.889008,30.683239 71.815643,31.646643 66.366714,32.636295 
	C66.530838,28.092152 68.454926,26.538431 72.612793,27.344917 
	C75.584129,27.921255 78.549850,28.526499 81.740234,29.419340 
z"/>
<path fill="#FCFDFD" opacity="1.000000" stroke="none" 
	d="
M15.427931,79.006393 
	C14.643328,83.766922 13.478569,88.537209 12.146058,93.653984 
	C8.918018,90.792770 11.322362,87.264763 11.691134,83.995811 
	C11.890095,82.232147 13.870882,80.669502 15.427931,79.006393 
z"/>
<path fill="#F2F5F6" opacity="1.000000" stroke="none" 
	d="
M87.764931,125.119453 
	C89.098946,125.279442 90.111374,125.568161 91.468033,125.668961 
	C92.312782,127.918495 91.436371,129.196457 88.420631,129.043823 
	C85.872696,130.229996 83.736549,131.392014 81.600395,132.554016 
	C81.272926,132.200638 80.945457,131.847244 80.617989,131.493866 
	C82.893105,129.411972 85.168221,127.330078 87.764931,125.119453 
z"/>
<path fill="#FCFDFD" opacity="1.000000" stroke="none" 
	d="
M171.969513,27.882540 
	C170.548828,28.449396 169.092026,28.680889 167.317108,28.794613 
	C168.643799,28.300287 170.288574,27.923733 171.969513,27.882540 
z"/>
<path fill="#FCFDFD" opacity="1.000000" stroke="none" 
	d="
M11.205574,100.606979 
	C11.548815,104.517525 11.762934,108.786629 11.922047,113.515495 
	C11.603512,109.638687 11.339983,105.302116 11.205574,100.606979 
z"/>
<path fill="#FCFDFD" opacity="1.000000" stroke="none" 
	d="
M179.744171,28.631065 
	C177.851456,28.918495 175.723404,28.956978 173.495850,28.622543 
	C175.433853,28.293789 177.471344,28.337954 179.744171,28.631065 
z"/>
<path fill="#FCFDFD" opacity="1.000000" stroke="none" 
	d="
M93.187927,124.197067 
	C93.674194,123.216057 94.381462,122.515274 95.382736,121.732430 
	C95.922043,123.395897 96.450302,125.368423 93.187927,124.197067 
z"/>
<path fill="#FCFDFD" opacity="1.000000" stroke="none" 
	d="
M91.939171,29.373718 
	C91.247154,29.706570 90.490067,29.744526 89.363602,29.692066 
	C89.954193,29.427372 90.914139,29.253096 91.939171,29.373718 
z"/>
<path fill="#F2F5F6" opacity="1.000000" stroke="none" 
	d="
M82.014053,139.576599 
	C80.636635,139.759094 79.259834,139.741486 77.469238,139.692001 
	C78.456413,139.435638 79.857384,139.211151 81.629639,138.981644 
	C82.000923,138.976608 82.014687,139.376526 82.014053,139.576599 
z"/>
<path fill="#F2F5F6" opacity="1.000000" stroke="none" 
	d="
M89.297058,139.164398 
	C89.004593,139.451523 88.360222,139.672104 87.371674,139.830475 
	C87.666718,139.544785 88.305939,139.321304 89.297058,139.164398 
z"/>
<path fill="#FCFDFD" opacity="1.000000" stroke="none" 
	d="
M112.877060,34.603790 
	C112.979736,34.777702 112.482422,34.825680 112.482422,34.825680 
	C112.482422,34.825680 112.141342,34.460617 112.133255,34.210995 
	C112.383194,34.059875 112.599602,34.216042 112.877060,34.603790 
z"/>
<path fill="#FCFDFD" opacity="1.000000" stroke="none" 
	d="
M11.674140,96.102097 
	C11.852684,96.182709 11.890354,96.345535 11.826611,96.737610 
	C11.378925,96.755142 11.314949,96.494293 11.674140,96.102097 
z"/>
<path fill="#F2F5F6" opacity="1.000000" stroke="none" 
	d="
M70.016510,134.953369 
	C69.631668,133.981918 69.628113,133.038300 69.624557,132.094696 
	C71.074883,132.094696 72.525200,132.094696 73.975517,132.094696 
	C74.128601,132.423935 74.281693,132.753174 74.434784,133.082413 
	C73.089119,133.715347 71.743454,134.348282 70.016510,134.953369 
z"/>
<path fill="#F2F5F6" opacity="1.000000" stroke="none" 
	d="
M92.260101,149.089478 
	C93.307007,149.553757 94.043182,149.987503 95.008560,150.666168 
	C93.616447,150.483429 91.995125,150.055740 90.229248,149.290344 
	C90.706261,148.988068 91.327812,149.023514 92.260101,149.089478 
z"/>
<path fill="#F2F5F6" opacity="1.000000" stroke="none" 
	d="
M110.629601,158.340546 
	C110.047997,158.473434 109.194099,158.426926 108.041641,158.236938 
	C108.614487,158.116028 109.485893,158.138596 110.629601,158.340546 
z"/>
<path fill="#F2F5F6" opacity="1.000000" stroke="none" 
	d="
M78.307037,133.090698 
	C78.274208,132.534851 78.403198,132.140457 78.532181,131.746063 
	C78.640175,131.853653 78.855782,131.985214 78.838058,132.064819 
	C78.748322,132.468018 78.597961,132.857712 78.307037,133.090698 
z"/>
<path fill="#F2F5F6" opacity="1.000000" stroke="none" 
	d="
M91.782150,154.689301 
	C91.162117,154.767212 90.328773,154.592041 89.246033,154.209045 
	C89.854034,154.146240 90.711441,154.291229 91.782150,154.689301 
z"/>
<path fill="#F2F5F6" opacity="1.000000" stroke="none" 
	d="
M74.273682,138.648163 
	C74.016464,138.633713 73.876045,138.496460 73.735626,138.359222 
	C73.953911,138.414597 74.172203,138.469971 74.273682,138.648163 
z"/>
<path fill="#F2F5F6" opacity="1.000000" stroke="none" 
	d="
M113.289337,155.446457 
	C113.721252,155.248581 114.420044,155.282547 115.386475,155.550049 
	C114.954811,155.748489 114.255516,155.713394 113.289337,155.446457 
z"/>
<path fill="#F2F5F6" opacity="1.000000" stroke="none" 
	d="
M82.005356,151.212311 
	C82.031364,151.395248 81.628899,151.413956 81.628899,151.413956 
	C81.628899,151.413956 81.270515,151.229843 81.145248,151.071747 
	C81.339760,150.952225 81.659554,150.990799 82.005356,151.212311 
z"/>
<path fill="#F2F5F6" opacity="1.000000" stroke="none" 
	d="
M97.771042,156.481308 
	C97.613419,156.628220 97.262711,156.596054 96.730255,156.360794 
	C96.891663,156.205887 97.234802,156.254059 97.771042,156.481308 
z"/>
<path fill="#F2F5F6" opacity="1.000000" stroke="none" 
	d="
M69.838142,144.773254 
	C69.637642,144.888901 69.280716,144.766739 68.784065,144.389099 
	C68.990135,144.267548 69.335930,144.401505 69.838142,144.773254 
z"/>
<path fill="#F2F5F6" opacity="1.000000" stroke="none" 
	d="
M104.912323,157.719879 
	C104.825638,157.902756 104.657471,157.934860 104.253616,157.865005 
	C104.288895,157.698395 104.559868,157.633743 104.912323,157.719879 
z"/>
<path fill="#F2F5F6" opacity="1.000000" stroke="none" 
	d="
M116.883163,158.563995 
	C116.975777,158.694382 116.499977,158.840820 116.261894,158.768188 
	C116.207207,158.349518 116.462784,158.262207 116.883163,158.563995 
z"/>
<path fill="#F2F5F6" opacity="1.000000" stroke="none" 
	d="
M109.263733,154.674194 
	C109.386192,154.386841 109.671410,154.396393 110.105347,154.738861 
	C110.259743,154.901367 109.837654,154.919037 109.837654,154.919037 
	C109.837654,154.919037 109.432152,154.800659 109.263733,154.674194 
z"/>
<path fill="#F2F5F6" opacity="1.000000" stroke="none" 
	d="
M105.044891,153.999542 
	C105.164185,153.787537 105.345566,153.770416 105.765564,153.886658 
	C105.705109,154.078140 105.406044,154.136276 105.044891,153.999542 
z"/>
<path fill="#EFF4F4" opacity="1.000000" stroke="none" 
	d="
M24.455967,64.435371 
	C24.522774,64.392464 24.389158,64.478279 24.455967,64.435371 
z"/>
<path fill="#F2F5F6" opacity="1.000000" stroke="none" 
	d="
M66.441483,133.537506 
	C66.402565,133.475159 66.480400,133.599838 66.441483,133.537506 
z"/>
</svg>